<svg width="113" height="92" viewBox="0 0 113 92" fill="none" xmlns="http://www.w3.org/2000/svg">
<path d="M0.96 2.424C10.8587 1.74133 19.6053 1.39999 27.2 1.39999C48.2773 1.39999 58.816 8.43999 58.816 22.52C58.816 28.4933 57.3653 33.8267 54.464 38.52C51.5627 43.2133 46.5707 46.328 39.488 47.864L65.088 91H53.184L28.096 48.632H11.584V91H0.96V2.424ZM27.2 2.67999C22.2507 2.67999 17.0453 2.97866 11.584 3.576V47.352H30.528C42.56 46.84 48.576 38.648 48.576 22.776C48.576 16.2907 46.784 11.3413 43.2 7.92799C39.616 4.42933 34.2827 2.67999 27.2 2.67999Z" fill="#030000"/>
<path d="M0.96 2.424L0.925599 1.92518L0.46 1.95729V2.424H0.96ZM54.464 38.52L54.8893 38.7829L54.8893 38.7829L54.464 38.52ZM39.488 47.864L39.382 47.3754L38.7039 47.5224L39.058 48.1192L39.488 47.864ZM65.088 91V91.5H65.9662L65.518 90.7448L65.088 91ZM53.184 91L52.7538 91.2548L52.899 91.5H53.184V91ZM28.096 48.632L28.5262 48.3772L28.381 48.132H28.096V48.632ZM11.584 48.632V48.132H11.084V48.632H11.584ZM11.584 91V91.5H12.084V91H11.584ZM0.96 91H0.46V91.5H0.96V91ZM11.584 3.576L11.5296 3.07896L11.084 3.1277V3.576H11.584ZM11.584 47.352H11.084V47.852H11.584V47.352ZM30.528 47.352V47.852H30.5386L30.5493 47.8515L30.528 47.352ZM43.2 7.92799L42.8507 8.28581L42.8552 8.29006L43.2 7.92799ZM0.96 2.424L0.994401 2.92281C10.8849 2.24071 19.6197 1.89999 27.2 1.89999V1.39999V0.899994C19.591 0.899994 10.8325 1.24195 0.925599 1.92518L0.96 2.424ZM27.2 1.39999V1.89999C37.6988 1.89999 45.4853 3.6562 50.6343 7.09576C55.7475 10.5115 58.316 15.6252 58.316 22.52H58.816H59.316C59.316 15.3348 56.6151 9.88848 51.1897 6.26423C45.8 2.66379 37.7786 0.899994 27.2 0.899994V1.39999ZM58.816 22.52H58.316C58.316 28.4084 56.8872 33.6493 54.0387 38.2571L54.464 38.52L54.8893 38.7829C57.8435 34.0041 59.316 28.5782 59.316 22.52H58.816ZM54.464 38.52L54.0387 38.2571C51.2292 42.8019 46.3755 45.8587 39.382 47.3754L39.488 47.864L39.594 48.3526C46.7659 46.7973 51.8962 43.6247 54.8893 38.7829L54.464 38.52ZM39.488 47.864L39.058 48.1192L64.658 91.2552L65.088 91L65.518 90.7448L39.918 47.6088L39.488 47.864ZM65.088 91V90.5H53.184V91V91.5H65.088V91ZM53.184 91L53.6142 90.7452L28.5262 48.3772L28.096 48.632L27.6658 48.8868L52.7538 91.2548L53.184 91ZM28.096 48.632V48.132H11.584V48.632V49.132H28.096V48.632ZM11.584 48.632H11.084V91H11.584H12.084V48.632H11.584ZM11.584 91V90.5H0.96V91V91.5H11.584V91ZM0.96 91H1.46V2.424H0.96H0.46V91H0.96ZM27.2 2.67999V2.17999C22.2307 2.17999 17.0071 2.47986 11.5296 3.07896L11.584 3.576L11.6384 4.07303C17.0836 3.47746 22.2707 3.17999 27.2 3.17999V2.67999ZM11.584 3.576H11.084V47.352H11.584H12.084V3.576H11.584ZM11.584 47.352V47.852H30.528V47.352V46.852H11.584V47.352ZM30.528 47.352L30.5493 47.8515C36.6856 47.5904 41.3522 45.3614 44.467 41.12C47.5645 36.9021 49.076 30.7627 49.076 22.776H48.576H48.076C48.076 30.6613 46.5795 36.5539 43.661 40.528C40.7598 44.4786 36.4024 46.6016 30.5067 46.8524L30.528 47.352ZM48.576 22.776H49.076C49.076 16.1983 47.2561 11.1005 43.5448 7.56592L43.2 7.92799L42.8552 8.29006C46.3119 11.5822 48.076 16.383 48.076 22.776H48.576ZM43.2 7.92799L43.5493 7.57021C39.8391 3.94833 34.3587 2.17999 27.2 2.17999V2.67999V3.17999C34.2066 3.17999 39.3929 4.91032 42.8507 8.28578L43.2 7.92799Z" fill="#010000"/>
<path d="M41.376 91H39.84L78.112 1.39999L79.52 0.759995L111.776 91H100.896L90.912 62.84H53.536L41.376 91ZM74.144 15.224L54.048 61.56H90.528L74.144 15.224Z" fill="#030000"/>
<path d="M41.376 91V91.5H41.7047L41.835 91.1982L41.376 91ZM39.84 91L39.3802 90.8036L39.0827 91.5H39.84V91ZM78.112 1.39999L77.9051 0.944811L77.7284 1.02512L77.6522 1.20359L78.112 1.39999ZM79.52 0.759995L79.9908 0.591699L79.8079 0.0799071L79.3131 0.304811L79.52 0.759995ZM111.776 91V91.5H112.486L112.247 90.8317L111.776 91ZM100.896 91L100.425 91.1671L100.543 91.5H100.896V91ZM90.912 62.84L91.3833 62.6729L91.2652 62.34H90.912V62.84ZM53.536 62.84V62.34H53.2073L53.077 62.6418L53.536 62.84ZM74.144 15.224L74.6154 15.0573L74.1914 13.8581L73.6853 15.0251L74.144 15.224ZM54.048 61.56L53.5893 61.3611L53.2862 62.06H54.048V61.56ZM90.528 61.56V62.06H91.2351L90.9994 61.3933L90.528 61.56ZM41.376 91V90.5H39.84V91V91.5H41.376V91ZM39.84 91L40.2998 91.1964L78.5718 1.5964L78.112 1.39999L77.6522 1.20359L39.3802 90.8036L39.84 91ZM78.112 1.39999L78.3189 1.85518L79.7269 1.21518L79.52 0.759995L79.3131 0.304811L77.9051 0.944811L78.112 1.39999ZM79.52 0.759995L79.0492 0.92829L111.305 91.1683L111.776 91L112.247 90.8317L79.9908 0.591699L79.52 0.759995ZM111.776 91V90.5H100.896V91V91.5H111.776V91ZM100.896 91L101.367 90.8329L91.3833 62.6729L90.912 62.84L90.4407 63.0071L100.425 91.1671L100.896 91ZM90.912 62.84V62.34H53.536V62.84V63.34H90.912V62.84ZM53.536 62.84L53.077 62.6418L40.917 90.8018L41.376 91L41.835 91.1982L53.995 63.0382L53.536 62.84ZM74.144 15.224L73.6853 15.0251L53.5893 61.3611L54.048 61.56L54.5067 61.7589L74.6027 15.4229L74.144 15.224ZM54.048 61.56V62.06H90.528V61.56V61.06H54.048V61.56ZM90.528 61.56L90.9994 61.3933L74.6154 15.0573L74.144 15.224L73.6726 15.3907L90.0566 61.7267L90.528 61.56Z" fill="#010000"/>
</svg>
